<svg width="80" height="45" viewBox="0 0 80 45" fill="none" xmlns="http://www.w3.org/2000/svg">
<path d="M3.11303 32.2603L2.74823 31.9739C1.49758 30.9968 1.15945 30.528 1.15945 29.7856C1.15945 28.8347 1.86291 28.2747 2.76156 28.2747C3.95995 28.2747 4.31141 28.8219 4.38981 28.9648C4.46821 29.1083 4.54607 29.4598 4.55941 29.616C4.57221 29.7206 4.58554 29.7856 4.6634 29.7856C4.72847 29.7856 4.7546 29.6944 4.7546 29.4859C4.7546 28.6 4.80687 28.1702 4.80687 28.1051C4.80687 28.0401 4.78074 28.0139 4.67674 28.0139C4.57221 28.0139 4.46821 28.0006 4.22074 27.9489C3.89488 27.871 3.51729 27.8187 3.00956 27.8187C1.35518 27.8187 0.313062 28.7696 0.313062 30.1632C0.313062 31.0491 0.625592 31.8565 2.00637 32.9899L2.59197 33.4714C3.71195 34.3962 4.08955 34.9173 4.08955 35.816C4.08955 36.6495 3.47729 37.5482 2.22717 37.5482C1.35465 37.5482 0.494927 37.1834 0.299729 36.2197C0.260797 36.0378 0.260797 35.8554 0.260797 35.7381C0.260797 35.6336 0.247463 35.5946 0.169598 35.5946C0.104532 35.5946 0.078399 35.6597 0.0650658 35.8032C0.052266 36.0112 0 36.5327 0 37.1839C0 37.5354 0.0127998 37.5877 0.195197 37.6789C0.729057 37.9397 1.32852 38.0309 1.94077 38.0309C2.64423 38.0309 3.34716 37.8746 3.90715 37.4837C4.8058 36.8453 5.01433 35.8554 5.01433 35.3216C5.01433 34.2794 4.64954 33.4714 3.11303 32.2603Z" fill="#012A7C"/>
<path d="M12.4244 27.8187C8.82928 27.8187 7.29224 30.8011 7.29224 32.9115C7.29224 35.256 8.77702 38.0303 12.346 38.0303C15.4852 38.0303 17.5433 35.6208 17.5433 32.7029C17.5433 29.6683 15.3551 27.8187 12.4244 27.8187ZM12.6975 37.5354C10.353 37.5354 8.52955 35.5818 8.52955 32.5467C8.52955 29.6944 10.1578 28.2614 12.3332 28.2614C14.3913 28.2614 16.2926 29.9414 16.2926 33.0677C16.2926 36.8581 13.8697 37.5354 12.6975 37.5354Z" fill="#012A7C"/>
<path d="M20.7576 36.897C20.7053 37.2746 20.6402 37.561 20.38 37.6132C20.2626 37.6394 20.1064 37.6655 19.989 37.6655C19.9112 37.6655 19.885 37.7044 19.885 37.7434C19.885 37.8218 19.9501 37.8479 20.0936 37.8479C20.5752 37.8479 20.9661 37.809 21.3698 37.809C22.6333 37.809 23.7399 37.8868 24.8604 37.8868C25.5506 37.8868 25.5895 37.8346 25.6807 37.5354C25.7847 37.1578 25.8759 36.3759 25.8759 36.233C25.8759 36.09 25.8631 36.0378 25.798 36.0378C25.7196 36.0378 25.694 36.1028 25.6807 36.2068C25.6412 36.4543 25.5116 36.7802 25.3415 36.9882C25.0295 37.3658 24.4556 37.3786 23.7655 37.3786C22.7495 37.3786 22.4109 37.2879 22.2029 37.0788C21.9682 36.8442 21.9159 36.0106 21.9159 34.0965V31.7781C21.9159 29.7461 21.9159 29.3813 21.9421 28.9643C21.9682 28.5083 22.0722 28.2869 22.4498 28.2219C22.6061 28.1957 22.7885 28.1829 22.8797 28.1829C22.9319 28.1829 22.9837 28.1568 22.9837 28.1051C22.9837 28.0272 22.9186 28.0005 22.7757 28.0005C22.3847 28.0005 21.4338 28.0395 21.3687 28.0395C21.3037 28.0395 20.4829 28.0005 19.8968 28.0005C19.7533 28.0005 19.6882 28.0267 19.6882 28.1051C19.6882 28.1573 19.7405 28.1829 19.7928 28.1829C19.9101 28.1829 20.1314 28.1963 20.2354 28.2219C20.6653 28.3131 20.7693 28.5216 20.7954 28.9643C20.8216 29.3813 20.8216 29.7456 20.8216 31.7781V34.0703C20.8226 35.321 20.8226 36.3503 20.7576 36.897Z" fill="#012A7C"/>
<path d="M39.0166 35.0474C39.0166 33.5231 37.7265 32.5984 36.7633 32.2992C37.375 31.6608 37.9873 31.0229 37.9873 29.9547C37.9873 29.3035 37.5185 28.0005 35.3825 28.0005C34.7831 28.0005 34.2753 28.0395 33.9628 28.0395C33.8977 28.0395 33.077 28.0005 32.4908 28.0005C32.3479 28.0005 32.2828 28.0267 32.2828 28.1051C32.2828 28.1573 32.3351 28.1829 32.4519 28.1829C32.5042 28.1829 32.725 28.1963 32.83 28.2219C33.2594 28.3131 33.3639 28.5216 33.39 28.9643C33.4162 29.3813 33.4162 29.7456 33.4162 31.7781V34.0703C33.4162 35.321 33.4162 36.3498 33.3511 36.897C33.2988 37.2746 33.2471 37.5743 32.9863 37.626C32.869 37.6522 32.7783 37.665 32.6738 37.665C32.5047 37.665 32.4786 37.7172 32.4786 37.7562C32.4786 37.8212 32.5431 37.8473 32.6866 37.8473C33.142 37.8473 33.5463 37.8084 33.9633 37.8084C34.0156 37.8084 34.3804 37.8218 34.7575 37.8473C35.1356 37.8601 35.5521 37.8863 35.6956 37.8863C37.9222 37.8868 39.0166 36.4415 39.0166 35.0474ZM34.4572 28.5739C34.4572 28.496 34.4967 28.4565 34.614 28.4304C34.822 28.3781 35.0961 28.3653 35.2391 28.3653C36.5158 28.3653 36.998 29.5248 36.998 30.6058C36.998 31.1397 36.8022 31.6085 36.5292 31.9216C36.2556 32.2341 36.0732 32.2602 35.3436 32.2602C34.862 32.2602 34.6273 32.2213 34.5495 32.208C34.4844 32.1818 34.4583 32.1557 34.4583 32.0645V28.5739H34.4572ZM36.0593 37.4703C35.8247 37.4703 35.2652 37.4442 34.9137 37.2751C34.5095 37.0794 34.5095 36.8975 34.4705 36.2591C34.4572 36.0639 34.4572 34.4485 34.4572 33.4458V32.7034C34.4572 32.6384 34.4833 32.6122 34.5356 32.6122C34.7313 32.6122 35.3825 32.6122 35.5516 32.6384C35.8641 32.6773 36.1895 32.7162 36.6326 33.0159C37.6353 33.7066 37.8961 34.8394 37.8961 35.6212C37.8966 37.0927 36.7633 37.4703 36.0593 37.4703Z" fill="#012A7C"/>
<path d="M42.3622 36.4022C42.3366 37.3792 42.167 37.5616 41.8934 37.6267C41.8027 37.6528 41.7243 37.6528 41.5937 37.6656C41.5153 37.6784 41.4507 37.7046 41.4507 37.7435C41.4507 37.8219 41.5153 37.848 41.6587 37.848C41.9974 37.8608 42.3099 37.8091 42.6225 37.8091C43.1307 37.8091 43.7296 37.8352 44.2507 37.848C44.7584 37.8608 45.1883 37.887 46.1525 37.887C46.6603 37.887 46.7648 37.887 46.856 37.5483C46.9211 37.2747 47.0251 36.3889 47.0251 36.2849C47.0251 36.1937 47.0251 36.0897 46.9472 36.0897C46.8821 36.0897 46.8555 36.1419 46.8293 36.2849C46.7253 36.8448 46.5824 37.1184 46.1653 37.2486C45.8139 37.3526 45.384 37.3659 44.9926 37.3659C44.4848 37.3659 44.1334 37.3398 43.9115 37.2486C43.5862 37.1184 43.5078 36.8315 43.4822 36.2977C43.4688 36.0241 43.4822 34.5131 43.4822 34.0705V32.9244C43.4822 32.8721 43.5078 32.8332 43.5728 32.8332C43.7942 32.8332 45.0838 32.8593 45.4358 32.8982C45.9045 32.9505 46.0608 33.1329 46.1131 33.3281C46.152 33.4454 46.1653 33.5756 46.1653 33.6929C46.1653 33.7974 46.1781 33.9014 46.2565 33.9014C46.3088 33.9014 46.3349 33.8364 46.3477 33.7062C46.3605 33.5238 46.3605 33.2241 46.4 32.8204C46.4389 32.3905 46.504 32.1686 46.504 32.0908C46.504 32.0129 46.4779 31.9868 46.4389 31.9868C46.3867 31.9868 46.3477 32.039 46.2827 32.1169C46.1525 32.2732 45.9829 32.3126 45.6315 32.3382C45.3318 32.3644 43.7296 32.3644 43.56 32.3644C43.495 32.3644 43.4822 32.3254 43.4822 32.2342V28.6396C43.4822 28.5484 43.5078 28.5095 43.56 28.5095C43.7035 28.5095 45.1232 28.5228 45.3446 28.5484C45.9179 28.6007 46.1915 28.7308 46.2827 29.0306C46.3216 29.1345 46.3477 29.2908 46.3477 29.4604C46.3477 29.5649 46.3733 29.63 46.4517 29.63C46.504 29.63 46.5429 29.5388 46.5557 29.4087C46.5819 29.07 46.5947 28.8226 46.608 28.6274C46.6341 28.2631 46.712 28.1063 46.712 28.0151C46.712 27.95 46.6992 27.8978 46.6597 27.8978C46.6208 27.8978 46.5947 27.9106 46.5168 27.95C46.4384 27.989 46.2043 28.0151 45.9179 28.0284C45.6181 28.0412 43.0262 28.0412 42.935 28.0412C42.1142 28.0023 41.7622 28.0023 41.463 28.0023C41.3201 28.0023 41.255 28.0284 41.255 28.1068C41.255 28.1591 41.3334 28.1719 41.4241 28.1847C41.5414 28.198 41.7105 28.198 41.8022 28.2236C42.2315 28.3148 42.3361 28.5234 42.3622 28.966C42.3883 29.3831 42.3883 29.7473 42.3883 31.7798V34.0721C42.3883 35.2299 42.375 35.8945 42.3622 36.4022Z" fill="#012A7C"/>
<path d="M55.5289 37.6399C55.4766 37.6527 55.4382 37.6789 55.4382 37.7311C55.4382 37.809 55.5812 37.809 55.8286 37.8223C56.7273 37.8485 57.6782 37.8485 57.8739 37.8485C58.0169 37.8485 58.1342 37.8223 58.1342 37.7439C58.1342 37.6789 58.0691 37.6661 57.9913 37.6661C57.8867 37.6661 57.6787 37.6527 57.483 37.5877C57.2099 37.5098 56.8318 37.3013 56.363 36.1418C55.5684 34.1621 53.5236 28.7824 53.3284 28.2875C53.1721 27.8838 53.1199 27.8187 53.042 27.8187C52.9636 27.8187 52.9119 27.8966 52.7556 28.3265L49.7978 36.4154C49.5631 37.0666 49.3034 37.5615 48.7039 37.6399C48.5994 37.6527 48.482 37.6661 48.3914 37.6661C48.2741 37.6661 48.209 37.6922 48.209 37.7439C48.209 37.8223 48.2874 37.8485 48.4565 37.8485C49.0682 37.8485 49.7844 37.8095 49.9279 37.8095C50.0714 37.8095 50.5924 37.8485 50.9049 37.8485C51.0223 37.8485 51.1396 37.8223 51.1396 37.7439C51.1396 37.6917 51.1001 37.6661 50.9705 37.6661C50.9311 37.6661 50.8921 37.6661 50.8527 37.6661C50.6314 37.6661 50.3839 37.5487 50.3839 37.2885C50.3839 37.0538 50.449 36.7413 50.5663 36.4159L51.3476 34.1104C51.3737 34.0453 51.4127 34.0064 51.4777 34.0064H54.2782C54.3433 34.0064 54.3689 34.0325 54.3956 34.0842L55.6073 37.2885C55.6852 37.4965 55.6073 37.6138 55.5289 37.6399ZM54.1092 33.537H51.6212C51.5817 33.537 51.5561 33.5109 51.5817 33.4459L52.7279 29.9291C52.7929 29.7334 52.858 29.7334 52.9236 29.9291L54.1609 33.4459C54.1742 33.4976 54.1742 33.537 54.1092 33.537Z" fill="#012A7C"/>
<path d="M67.588 35.4907C67.5096 35.4907 67.484 35.5429 67.4578 35.6859C67.4189 35.9205 67.2498 36.4933 66.9757 36.7802C66.4546 37.3141 65.6861 37.4314 64.7091 37.4314C61.9219 37.4314 60.0073 35.152 60.0073 32.664C60.0073 31.3355 60.2291 30.1761 61.18 29.2646C61.6355 28.822 62.443 28.3137 64.1752 28.3137C65.3213 28.3137 66.3245 28.6652 66.7805 29.0561C67.1192 29.3425 67.3272 29.8763 67.3272 30.3846C67.3272 30.567 67.3405 30.6582 67.4317 30.6582C67.5096 30.6582 67.5357 30.5803 67.549 30.3846C67.5618 30.1894 67.5618 29.4731 67.588 29.0428C67.6141 28.574 67.653 28.4177 67.653 28.3137C67.653 28.2358 67.6269 28.1836 67.5357 28.1702C67.0536 28.1052 66.6498 28.0657 66.1549 27.9745C65.517 27.8572 64.7875 27.8182 64.2664 27.8182C62.26 27.8182 61.075 28.4305 60.2931 29.2118C59.1342 30.3713 58.8345 31.895 58.8345 32.7675C58.8345 34.0048 59.147 35.4901 60.411 36.6229C61.4398 37.5477 62.755 38.0298 64.7091 38.0298C65.5426 38.0298 66.533 37.9386 67.0536 37.7301C67.2882 37.6256 67.3144 37.6 67.3922 37.352C67.5224 36.9093 67.6786 35.776 67.6786 35.6848C67.6786 35.5819 67.653 35.4907 67.588 35.4907Z" fill="#012A7C"/>
<path d="M79.8944 37.6655C79.7771 37.6655 79.4907 37.6394 79.3083 37.6132C78.9179 37.561 78.8395 37.2746 78.8005 36.897C78.7355 36.3498 78.7355 35.321 78.7355 34.0703V31.7781C78.7355 29.7461 78.7355 29.3813 78.7611 28.9643C78.7872 28.5083 78.8912 28.2869 79.2432 28.2219C79.4 28.1957 79.4779 28.1829 79.5691 28.1829C79.6213 28.1829 79.6731 28.1568 79.6731 28.1051C79.6731 28.0272 79.608 28.0005 79.4651 28.0005C79.0741 28.0005 78.2533 28.0395 78.1883 28.0395C78.1232 28.0395 77.3024 28.0005 76.7168 28.0005C76.5734 28.0005 76.5083 28.0267 76.5083 28.1051C76.5083 28.1573 76.5606 28.1829 76.6128 28.1829C76.7302 28.1829 76.9515 28.1963 77.0555 28.2219C77.4854 28.3131 77.5894 28.5216 77.616 28.9643C77.6416 29.3813 77.6416 29.7456 77.6416 31.7781V32.0512C77.6416 32.1162 77.6027 32.1296 77.5638 32.1296H72.0406C72.0017 32.1296 71.9628 32.1162 71.9628 32.0512V31.7781C71.9628 29.7461 71.9628 29.3813 71.9884 28.9643C72.0145 28.5083 72.1185 28.2869 72.4705 28.2219C72.6273 28.1957 72.7052 28.1829 72.7964 28.1829C72.8486 28.1829 72.9004 28.1568 72.9004 28.1051C72.9004 28.0272 72.8353 28.0005 72.6918 28.0005C72.3014 28.0005 71.4806 28.0395 71.4156 28.0395C71.3505 28.0395 70.5297 28.0005 69.9441 28.0005C69.8007 28.0005 69.7356 28.0267 69.7356 28.1051C69.7356 28.1573 69.7879 28.1829 69.8396 28.1829C69.9569 28.1829 70.1788 28.1963 70.2828 28.2219C70.7126 28.3131 70.8166 28.5216 70.8433 28.9643C70.8689 29.3813 70.8689 29.7456 70.8689 31.7781V34.0703C70.8689 35.321 70.8689 36.3498 70.8039 36.897C70.7516 37.2746 70.6865 37.561 70.4257 37.6132C70.3084 37.6394 70.1527 37.6655 70.0353 37.6655C69.9569 37.6655 69.9313 37.7044 69.9313 37.7434C69.9313 37.8217 69.9964 37.8479 70.1393 37.8479C70.5303 37.8479 71.351 37.8089 71.4161 37.8089C71.4812 37.8089 72.302 37.8479 73.0182 37.8479C73.1617 37.8479 73.2262 37.8089 73.2262 37.7434C73.2262 37.7044 73.2006 37.6655 73.1222 37.6655C73.0049 37.6655 72.7185 37.6394 72.5361 37.6132C72.1457 37.561 72.0673 37.2746 72.0284 36.897C71.9633 36.3498 71.9633 35.321 71.9633 34.0703V32.7029C71.9633 32.6378 72.0022 32.6245 72.0412 32.6245H77.5643C77.6032 32.6245 77.6422 32.6506 77.6422 32.7029V34.0703C77.6422 35.321 77.6422 36.3498 77.5771 36.897C77.5248 37.2746 77.4598 37.561 77.1995 37.6132C77.0822 37.6394 76.9259 37.6655 76.8086 37.6655C76.7307 37.6655 76.7046 37.7044 76.7046 37.7434C76.7046 37.8217 76.7696 37.8479 76.9131 37.8479C77.3035 37.8479 78.1243 37.8089 78.1893 37.8089C78.2544 37.8089 79.0752 37.8479 79.7915 37.8479C79.9349 37.8479 80 37.8089 80 37.7434C79.9989 37.705 79.9728 37.6655 79.8944 37.6655Z" fill="#012A7C"/>
<path d="M16.7679 44.7887C16.7231 44.7887 16.6586 44.7839 16.593 44.7738C16.4634 44.7588 16.4388 44.6591 16.4239 44.5391C16.4042 44.3594 16.4042 44.0357 16.4042 43.6266V42.8789C16.4042 42.2207 16.4042 42.1055 16.409 41.9712C16.4191 41.8314 16.4388 41.752 16.5732 41.7317C16.6031 41.7269 16.6436 41.7216 16.6735 41.7216C16.7135 41.7216 16.7284 41.7018 16.7284 41.6869C16.7284 41.657 16.6986 41.6522 16.649 41.6522C16.4991 41.6522 16.2196 41.6672 16.1999 41.6672C16.1802 41.6672 15.8858 41.6522 15.6767 41.6522C15.6314 41.6522 15.6063 41.657 15.6063 41.6869C15.6063 41.7066 15.6314 41.7216 15.6666 41.7216C15.7066 41.7216 15.7562 41.7264 15.7908 41.7317C15.9551 41.7616 15.9748 41.8314 15.9855 41.9664C15.9956 42.1013 15.9956 42.2159 15.9956 42.8741V42.9637C15.9956 42.9887 15.9807 42.9887 15.9652 42.9887H14.1599C14.145 42.9887 14.1301 42.9887 14.1301 42.9637V42.8741C14.1301 42.2159 14.1301 42.1061 14.1349 41.9712C14.145 41.8314 14.1749 41.7466 14.2991 41.7269C14.3541 41.7168 14.369 41.7168 14.3994 41.7168C14.4293 41.7168 14.449 41.7066 14.449 41.6869C14.449 41.6618 14.4239 41.6522 14.3738 41.6522C14.2346 41.6522 13.945 41.6672 13.9253 41.6672C13.8607 41.6672 13.6213 41.6522 13.4063 41.6522C13.3567 41.6522 13.3317 41.657 13.3317 41.6869C13.3317 41.7018 13.3514 41.7168 13.3866 41.7168C13.4271 41.7168 13.4767 41.7216 13.5215 41.7269C13.6661 41.7418 13.7007 41.8368 13.7109 41.9664C13.721 42.1013 13.721 42.2309 13.721 42.889V43.6271C13.721 44.0362 13.7258 44.3706 13.6959 44.5498C13.681 44.6596 13.6613 44.754 13.5717 44.7743C13.5317 44.7844 13.4922 44.7892 13.4522 44.7892C13.4069 44.7892 13.3967 44.809 13.3967 44.8239C13.3967 44.849 13.4271 44.8586 13.4767 44.8586C13.6063 44.8586 13.9103 44.8436 13.9253 44.8436C13.9503 44.8436 14.2447 44.8586 14.4991 44.8586C14.5439 44.8586 14.5636 44.8436 14.5636 44.8239C14.5636 44.8042 14.5386 44.7892 14.5039 44.7892C14.4639 44.7892 14.3893 44.7844 14.3242 44.7743C14.1946 44.7594 14.1701 44.6596 14.1551 44.5498C14.1301 44.3701 14.1301 44.0463 14.1301 43.6421V43.1983C14.1301 43.1733 14.1402 43.1685 14.1551 43.1685H15.9652C15.9807 43.1685 15.9956 43.1786 15.9956 43.1983V43.6421C15.9956 44.0463 15.9956 44.3605 15.97 44.5397C15.9551 44.6543 15.93 44.7642 15.8458 44.7791C15.8058 44.7892 15.7711 44.7892 15.7311 44.7892C15.6911 44.7892 15.6762 44.8042 15.6762 44.8191C15.6762 44.849 15.7012 44.8591 15.7508 44.8591C15.8852 44.8591 16.1748 44.8442 16.1946 44.8442C16.2196 44.8442 16.5087 44.8591 16.7583 44.8591C16.8079 44.8591 16.833 44.849 16.833 44.8244C16.833 44.8036 16.8079 44.7887 16.7679 44.7887Z" fill="#012A7C"/>
<path d="M20.2175 41.592C18.9855 41.592 18.4719 42.5846 18.4719 43.248C18.4719 44.0064 18.9706 44.9136 20.1924 44.9136C21.2554 44.9136 21.9583 44.136 21.9583 43.183C21.9583 42.1803 21.2052 41.592 20.2175 41.592ZM20.3178 44.744C19.4799 44.744 18.9359 44.0955 18.9359 43.1179C18.9359 42.1755 19.4948 41.7467 20.1876 41.7467C20.8708 41.7467 21.4895 42.3051 21.4895 43.3078C21.4895 44.5744 20.6516 44.744 20.3178 44.744Z" fill="#012A7C"/>
<path d="M26.1132 41.6218C26.0983 41.6218 26.0833 41.6266 26.0188 41.6415C25.9489 41.6565 25.7991 41.6666 25.6599 41.6666H24.0236C24.0188 41.6666 23.8791 41.6618 23.7047 41.6415C23.6151 41.6314 23.5207 41.5866 23.4855 41.5866C23.4706 41.5866 23.4556 41.6063 23.4407 41.6661C23.4108 41.801 23.3356 42.1301 23.3404 42.1599C23.3404 42.185 23.3452 42.2047 23.3655 42.2047C23.3852 42.2047 23.3959 42.1999 23.4108 42.1647C23.421 42.1397 23.4407 42.0799 23.4855 42.0101C23.5554 41.9055 23.6247 41.8554 23.9442 41.8506C24.1436 41.8458 24.4081 41.8458 24.5724 41.8458V43.6261C24.5724 44.0004 24.5724 44.3594 24.5527 44.5386C24.5329 44.7082 24.518 44.7679 24.4231 44.7828C24.3831 44.7876 24.3527 44.7876 24.3132 44.7876C24.2732 44.7876 24.2583 44.8074 24.2583 44.8223C24.2583 44.8474 24.278 44.857 24.3329 44.857C24.4631 44.857 24.7575 44.842 24.7772 44.842C24.7969 44.842 25.0913 44.857 25.3457 44.857C25.3953 44.857 25.4103 44.842 25.4103 44.817C25.4103 44.802 25.3905 44.7871 25.3505 44.7871C25.3105 44.7871 25.2156 44.7823 25.1559 44.7674C25.0316 44.7375 25.0215 44.6676 25.0065 44.5476C24.9863 44.3631 24.9809 44.009 24.9809 43.625V41.8447C25.126 41.8447 25.2801 41.8495 25.47 41.8495C25.974 41.8543 26.0385 41.9045 26.0588 42.1039C26.0636 42.1535 26.0636 42.1589 26.0636 42.1738C26.0636 42.2138 26.0737 42.2341 26.0983 42.2341C26.1132 42.2341 26.1329 42.2191 26.1329 42.1738C26.1329 42.1338 26.1431 41.8047 26.1431 41.665C26.1431 41.6463 26.1329 41.6218 26.1132 41.6218Z" fill="#012A7C"/>
<path d="M29.6208 44.3201C29.5808 44.5046 29.5461 44.6043 29.3963 44.6491C29.272 44.6838 29.1125 44.679 29.0171 44.679C28.848 44.679 28.728 44.6689 28.6528 44.6342C28.5483 44.5894 28.5232 44.4945 28.5136 44.3099C28.5088 44.2251 28.5136 43.7862 28.5136 43.6315V43.2673C28.5136 43.2475 28.5184 43.2326 28.5483 43.2326C28.6277 43.2326 29.032 43.2427 29.1467 43.2523C29.336 43.2673 29.3659 43.3371 29.3856 43.4022C29.3957 43.4422 29.4005 43.4923 29.4005 43.5222C29.4005 43.5569 29.4059 43.5867 29.4309 43.5867C29.4507 43.5867 29.4608 43.5718 29.4656 43.5318C29.4704 43.4667 29.4704 43.367 29.4853 43.2278C29.5003 43.0833 29.52 42.9883 29.52 42.9633C29.52 42.9382 29.5099 42.9334 29.5003 42.9334C29.4805 42.9334 29.4656 42.9435 29.4453 42.9734C29.4053 43.0283 29.3301 43.0433 29.216 43.0486C29.1115 43.0587 28.6027 43.0635 28.5429 43.0635C28.5179 43.0635 28.5131 43.0438 28.5131 43.0139V41.8817C28.5131 41.8518 28.5232 41.8417 28.5381 41.8417C28.5483 41.8417 29.0416 41.8465 29.1067 41.8518C29.3557 41.8668 29.4005 41.902 29.4309 42.0017C29.4459 42.0364 29.4608 42.0865 29.4656 42.1612C29.4656 42.1958 29.4757 42.2161 29.5003 42.2161C29.5248 42.2161 29.5349 42.1862 29.5349 42.1409C29.5397 42.046 29.5451 41.9665 29.5499 41.8817C29.56 41.7574 29.5899 41.687 29.5899 41.6572C29.5899 41.6321 29.5797 41.6225 29.5701 41.6225C29.5504 41.6225 29.5451 41.6273 29.5152 41.6374C29.4752 41.6524 29.4208 41.6572 29.3205 41.6625C29.2208 41.6673 28.3328 41.6673 28.3083 41.6673C28.0288 41.6625 27.8944 41.6524 27.7941 41.6524C27.7446 41.6524 27.7195 41.6625 27.7195 41.6924C27.7195 41.7073 27.7493 41.7222 27.784 41.7222C27.8245 41.7222 27.8741 41.727 27.904 41.7324C28.0485 41.7622 28.0832 41.8321 28.0933 41.9718C28.1035 42.1068 28.1035 42.2262 28.1035 42.8795V43.6273C28.1035 44.0065 28.0987 44.2107 28.0933 44.3803C28.0832 44.6897 28.0235 44.7542 27.9339 44.7745C27.8992 44.7846 27.864 44.7894 27.8341 44.7894C27.8085 44.7894 27.7888 44.8043 27.7888 44.8241C27.7888 44.8491 27.8144 44.8587 27.8592 44.8587C27.9787 44.8587 28.0731 44.8438 28.1883 44.8438C28.3723 44.8438 28.6021 44.8539 28.7771 44.8587C28.9515 44.8587 29.0912 44.8689 29.4203 44.8689C29.5845 44.8689 29.6192 44.8587 29.6395 44.759C29.6544 44.6742 29.6944 44.3601 29.6944 44.3254C29.6944 44.2955 29.6944 44.2502 29.6645 44.2502C29.6453 44.2502 29.6304 44.2699 29.6208 44.3201Z" fill="#012A7C"/>
<path d="M32.2114 41.7313C32.261 41.7265 32.3117 41.7211 32.3463 41.7211C32.3762 41.7211 32.4013 41.7062 32.4013 41.6865C32.4013 41.6667 32.3863 41.6518 32.3367 41.6518C32.197 41.6518 31.8925 41.6667 31.8226 41.6667C31.8125 41.6667 31.5133 41.6518 31.3037 41.6518C31.2541 41.6518 31.229 41.6619 31.229 41.6865C31.229 41.7062 31.2487 41.7211 31.2839 41.7211C31.3245 41.7211 31.3789 41.7211 31.4087 41.7259C31.5778 41.7462 31.5981 41.8358 31.6077 41.9755C31.6178 42.1105 31.6178 42.2198 31.6178 42.8784V43.6262C31.6178 44.0102 31.6279 44.3547 31.5981 44.544C31.5831 44.664 31.5533 44.7638 31.4685 44.7787C31.4285 44.7888 31.389 44.7888 31.349 44.7888C31.3085 44.7888 31.2935 44.8038 31.2935 44.8187C31.2935 44.8486 31.3239 44.8587 31.3735 44.8587C31.5479 44.8587 31.6477 44.8438 31.8125 44.8438C32.3117 44.8438 32.6855 44.8688 33.0247 44.8688C33.2642 44.8688 33.2594 44.8438 33.2892 44.744C33.3191 44.6294 33.349 44.3451 33.349 44.2955C33.349 44.2454 33.3388 44.2304 33.3191 44.2304C33.294 44.2304 33.2844 44.2502 33.2791 44.2907C33.269 44.3654 33.2338 44.4651 33.1842 44.5398C33.0748 44.6795 32.8748 44.6795 32.6557 44.6795C32.3117 44.6795 32.2114 44.6496 32.1319 44.5798C32.0471 44.5003 32.0274 44.2107 32.0274 43.6374V42.8795C32.0274 42.2214 32.0226 42.1115 32.0322 41.9766C32.0423 41.831 32.0722 41.7515 32.2114 41.7313Z" fill="#012A7C"/>
<path d="M40.8341 44.8234C40.8341 44.7935 40.7989 44.7887 40.7541 44.7887C40.5749 44.7887 40.3301 44.689 40.1706 44.594C40.0314 44.5146 39.8117 44.3797 39.4826 44.1002C39.7024 43.8309 39.9765 43.3269 39.9765 42.9231C39.9765 42.8735 39.9616 42.833 39.8869 42.8234C39.6074 42.7935 39.408 42.7887 39.2885 42.7887C39.2485 42.7887 39.2085 42.7989 39.2085 42.8234C39.2085 42.8485 39.2538 42.8533 39.3088 42.8634C39.3733 42.8735 39.4581 42.8831 39.513 42.9381C39.5882 43.0133 39.608 43.1077 39.608 43.1823C39.608 43.4863 39.4928 43.8207 39.3536 44.0101C39.1936 43.8751 38.5802 43.3018 38.4112 43.1173C37.8923 42.5541 37.6229 42.2298 37.6229 41.8405C37.6229 41.3717 37.9573 41.1872 38.2565 41.1872C38.4709 41.1872 38.6357 41.2773 38.7557 41.4064C38.8752 41.5312 38.9104 41.6805 38.9104 41.8304C38.9104 41.9056 38.9152 41.9253 38.9402 41.9253C38.9653 41.9253 38.9802 41.8954 38.9952 41.8053C39.0149 41.6757 39.025 41.4512 39.025 41.2666C39.025 41.1968 39.0202 41.1669 38.9157 41.1168C38.7909 41.0565 38.5712 41.017 38.3568 41.017C37.6885 41.017 37.2843 41.5408 37.2843 41.9349C37.2843 42.1594 37.3344 42.3637 37.5189 42.6229C37.1301 42.8522 36.7659 43.2415 36.7659 43.825C36.7659 44.2586 37.1051 44.9274 37.9781 44.9274C38.7162 44.9274 39.1002 44.5285 39.2144 44.4133C39.6586 44.7674 39.8629 44.8372 40.1173 44.857C40.2773 44.8719 40.4762 44.857 40.7658 44.857C40.809 44.8586 40.8341 44.8484 40.8341 44.8234ZM38.1557 44.6543C37.5968 44.6543 37.1733 44.2154 37.1733 43.5919C37.1733 43.193 37.3333 42.9237 37.592 42.7541C37.7317 42.9583 38.0613 43.3173 38.1904 43.457C38.3205 43.5967 38.809 44.0805 39.088 44.3151C38.9189 44.4895 38.6197 44.6543 38.1557 44.6543Z" fill="#012A7C"/>
<path d="M46.2024 44.799C46.3118 44.8438 46.4222 44.8587 46.6563 44.8587H47.0056C47.076 44.8587 47.0958 44.8486 47.0958 44.824C47.0958 44.8043 47.0808 44.7894 47.0408 44.7894C47.0259 44.7894 46.9208 44.7846 46.8862 44.7793C46.747 44.759 46.5971 44.719 46.3571 44.4753C46.1032 44.2107 45.8041 43.8417 45.4398 43.3931C45.8339 43.0737 45.9683 42.7249 45.9683 42.4508C45.9683 42.1116 45.7641 41.9121 45.6691 41.8422C45.435 41.6774 45.131 41.6529 44.8515 41.6529C44.7118 41.6529 44.3726 41.6678 44.3278 41.6678C44.3177 41.6678 44.0137 41.6529 43.7987 41.6529C43.7539 41.6529 43.739 41.6678 43.739 41.6876C43.739 41.7073 43.7587 41.7174 43.7939 41.7174C43.8345 41.7174 43.8841 41.7222 43.9139 41.7276C44.0681 41.7574 44.1033 41.8326 44.1129 41.967C44.123 42.102 44.123 42.2214 44.123 42.8795V43.6273C44.123 44.0017 44.1278 44.4102 44.1033 44.5899C44.0883 44.7099 44.0585 44.7649 43.9737 44.7798C43.9337 44.7899 43.899 44.7899 43.8643 44.7899C43.8345 44.7899 43.8041 44.8049 43.8041 44.8198C43.8041 44.8497 43.8238 44.8598 43.8745 44.8598C44.0089 44.8598 44.2286 44.8449 44.3081 44.8449C44.3278 44.8449 44.6073 44.8598 44.867 44.8598C44.9166 44.8598 44.9369 44.8449 44.9369 44.8198C44.9369 44.8049 44.9171 44.7899 44.8723 44.7899C44.8323 44.7899 44.7774 44.7851 44.7273 44.7798C44.563 44.7595 44.5481 44.6598 44.5331 44.5403C44.5081 44.3606 44.5081 43.9969 44.5081 43.5979V43.5281C44.5081 43.5083 44.5129 43.503 44.5331 43.503L45.0467 43.5078C45.0766 43.5078 45.0867 43.5179 45.107 43.5377C45.1918 43.6422 45.3907 43.9115 45.5854 44.151C45.843 44.4849 45.9928 44.7089 46.2024 44.799ZM45.3097 43.2827C45.2051 43.3526 45.0803 43.3579 44.9753 43.3579C44.7961 43.3579 44.5961 43.3281 44.5315 43.2929C44.5118 43.2827 44.5065 43.2582 44.5065 43.2331V41.8764C44.5065 41.8513 44.5214 41.8364 44.5363 41.8316C44.5961 41.8166 44.7006 41.8065 44.8254 41.8065C45.2691 41.8065 45.5582 42.1057 45.5582 42.6491C45.5587 42.9686 45.4595 43.1878 45.3097 43.2827Z" fill="#012A7C"/>
<path d="M49.6474 44.8689C49.8117 44.8689 49.8463 44.8587 49.8666 44.759C49.8815 44.6742 49.9215 44.3601 49.9215 44.3254C49.9215 44.2955 49.9215 44.2502 49.8917 44.2502C49.8719 44.2502 49.857 44.2699 49.8469 44.3201C49.8069 44.5046 49.7722 44.6043 49.6223 44.6491C49.4981 44.6838 49.3386 44.679 49.2431 44.679C49.0741 44.679 48.9541 44.6689 48.8789 44.6342C48.7743 44.5894 48.7493 44.4945 48.7397 44.3099C48.7349 44.2251 48.7397 43.7862 48.7397 43.6315V43.2673C48.7397 43.2475 48.7445 43.2326 48.7743 43.2326C48.8538 43.2326 49.2581 43.2427 49.3727 43.2523C49.5621 43.2673 49.5919 43.3371 49.6117 43.4022C49.6218 43.4422 49.6266 43.4923 49.6266 43.5222C49.6266 43.5569 49.6314 43.5867 49.657 43.5867C49.6767 43.5867 49.6869 43.5718 49.6917 43.5318C49.6965 43.4667 49.6965 43.367 49.7114 43.2278C49.7263 43.0833 49.7461 42.9883 49.7461 42.9633C49.7461 42.9382 49.7359 42.9334 49.7263 42.9334C49.7066 42.9334 49.6917 42.9435 49.6714 42.9734C49.6309 43.0283 49.5562 43.0433 49.4421 43.0486C49.3375 43.0587 48.8287 43.0635 48.769 43.0635C48.7439 43.0635 48.7391 43.0438 48.7391 43.0139V41.8817C48.7391 41.8518 48.7493 41.8417 48.7642 41.8417C48.7743 41.8417 49.2677 41.8465 49.3327 41.8518C49.5818 41.8668 49.6266 41.902 49.657 42.0017C49.6719 42.0364 49.6869 42.0865 49.6917 42.1612C49.6917 42.1958 49.7018 42.2161 49.7263 42.2161C49.7514 42.2161 49.761 42.1862 49.761 42.1409C49.7658 42.046 49.7711 41.9665 49.7759 41.8817C49.7861 41.7574 49.8159 41.687 49.8159 41.6572C49.8159 41.6321 49.8058 41.6225 49.7962 41.6225C49.7765 41.6225 49.7711 41.6273 49.7413 41.6374C49.7013 41.6524 49.6469 41.6572 49.5466 41.6625C49.4469 41.6673 48.5589 41.6673 48.5343 41.6673C48.2549 41.6625 48.1205 41.6524 48.0202 41.6524C47.9706 41.6524 47.9456 41.6625 47.9456 41.6924C47.9456 41.7073 47.9754 41.7222 48.0101 41.7222C48.0506 41.7222 48.1002 41.727 48.1301 41.7324C48.2746 41.7622 48.3093 41.8321 48.3194 41.9718C48.3295 42.1068 48.3296 42.2262 48.3296 42.8795V43.6273C48.3296 44.0065 48.3247 44.2107 48.3194 44.3803C48.3093 44.6897 48.2496 44.7542 48.16 44.7745C48.1253 44.7846 48.0901 44.7894 48.0602 44.7894C48.0352 44.7894 48.0149 44.8043 48.0149 44.8241C48.0149 44.8491 48.0405 44.8587 48.0853 44.8587C48.2048 44.8587 48.2992 44.8438 48.4143 44.8438C48.5983 44.8438 48.8282 44.8539 49.0031 44.8587C49.1781 44.8587 49.3178 44.8689 49.6474 44.8689Z" fill="#012A7C"/>
<path d="M52.8489 43.0134L52.7337 42.9233C52.3198 42.6091 52.2004 42.4646 52.2004 42.2299C52.2004 41.9307 52.4244 41.751 52.7236 41.751C53.1428 41.751 53.2574 41.9403 53.2825 41.9851C53.3273 42.0699 53.3374 42.1745 53.3422 42.2198C53.347 42.2545 53.3524 42.2747 53.3769 42.2747C53.4014 42.2747 53.4121 42.2449 53.4121 42.1697C53.4121 41.8806 53.4318 41.7057 53.4318 41.6859C53.4318 41.6662 53.4217 41.6561 53.3865 41.6561C53.3518 41.6561 53.3118 41.6513 53.2174 41.631C53.1081 41.6059 52.9881 41.591 52.8137 41.591C52.2548 41.591 51.891 41.9003 51.891 42.359C51.891 42.6534 51.9908 42.9179 52.4697 43.3014L52.6686 43.456C53.0329 43.7504 53.1625 43.9248 53.1625 44.2091C53.1625 44.4587 52.963 44.7424 52.5492 44.7424C52.2601 44.7424 51.9657 44.6182 51.9006 44.2939C51.8857 44.2336 51.8857 44.1739 51.8857 44.144C51.8857 44.1088 51.8756 44.0939 51.851 44.0939C51.8265 44.0939 51.8164 44.119 51.811 44.1638C51.8057 44.2336 51.7908 44.4032 51.7908 44.6326C51.7908 44.752 51.7908 44.7723 51.8558 44.8022C52.0452 44.887 52.2398 44.9115 52.4494 44.9115C52.6884 44.9115 52.9278 44.8619 53.1225 44.7371C53.4265 44.5275 53.5017 44.2086 53.5017 44.0288C53.5022 43.6768 53.3673 43.4123 52.8489 43.0134Z" fill="#012A7C"/>
<path d="M56.9063 41.592C55.6744 41.592 55.1608 42.5846 55.1608 43.248C55.1608 44.0064 55.6594 44.9136 56.8813 44.9136C57.9442 44.9136 58.6471 44.136 58.6471 43.183C58.6477 42.1803 57.8941 41.592 56.9063 41.592ZM57.0066 44.744C56.1688 44.744 55.6248 44.0955 55.6248 43.1179C55.6248 42.1755 56.1837 41.7467 56.8765 41.7467C57.5597 41.7467 58.1783 42.3051 58.1783 43.3078C58.1783 44.5744 57.341 44.744 57.0066 44.744Z" fill="#012A7C"/>
<path d="M63.4984 44.7887C63.4834 44.7887 63.3784 44.7839 63.3437 44.7786C63.2045 44.7583 63.0546 44.7183 62.8146 44.4746C62.5608 44.2101 62.2616 43.841 61.8973 43.3925C62.2914 43.073 62.4258 42.7242 62.4258 42.4501C62.4258 42.1109 62.2216 41.9114 62.1266 41.8416C61.8925 41.6768 61.5885 41.6522 61.3091 41.6522C61.1693 41.6522 60.8301 41.6672 60.7853 41.6672C60.7752 41.6672 60.4712 41.6522 60.2563 41.6522C60.2115 41.6522 60.1965 41.6672 60.1965 41.6869C60.1965 41.7066 60.2163 41.7168 60.2515 41.7168C60.292 41.7168 60.3416 41.7216 60.3715 41.7269C60.5256 41.7568 60.5608 41.832 60.5704 41.9664C60.5805 42.1013 60.5805 42.2207 60.5805 42.8789V43.6266C60.5805 44.001 60.5853 44.4095 60.5608 44.5893C60.5459 44.7092 60.516 44.7642 60.4312 44.7791C60.3912 44.7892 60.3565 44.7892 60.3219 44.7892C60.292 44.7892 60.2616 44.8042 60.2616 44.8191C60.2616 44.849 60.2819 44.8591 60.332 44.8591C60.4664 44.8591 60.6861 44.8442 60.7656 44.8442C60.7853 44.8442 61.0648 44.8591 61.3245 44.8591C61.3741 44.8591 61.3944 44.8442 61.3944 44.8191C61.3944 44.8042 61.3747 44.7892 61.3299 44.7892C61.2899 44.7892 61.2349 44.7844 61.1848 44.7791C61.0205 44.7588 61.0056 44.6591 60.9907 44.5397C60.9656 44.3599 60.9656 43.9962 60.9656 43.5973V43.5274C60.9656 43.5077 60.9704 43.5023 60.9907 43.5023L61.5042 43.5071C61.5341 43.5071 61.5442 43.5173 61.5645 43.537C61.6493 43.6415 61.8482 43.9109 62.0429 44.1503C62.3021 44.4847 62.452 44.7087 62.6616 44.7988C62.7709 44.8436 62.8813 44.8586 63.1154 44.8586H63.4648C63.5352 44.8586 63.5549 44.8484 63.5549 44.8239C63.5533 44.8036 63.5384 44.7887 63.4984 44.7887ZM61.7677 43.2826C61.6632 43.3525 61.5384 43.3578 61.4333 43.3578C61.2541 43.3578 61.0541 43.3279 60.9896 43.2927C60.9699 43.2826 60.9645 43.2581 60.9645 43.233V41.8762C60.9645 41.8512 60.9795 41.8362 60.9944 41.8314C61.0541 41.8165 61.1587 41.8064 61.2834 41.8064C61.7272 41.8064 62.0162 42.1056 62.0162 42.649C62.0173 42.9685 61.9176 43.1877 61.7677 43.2826Z" fill="#012A7C"/>
<path d="M66.8552 41.6218C66.8402 41.6218 66.8253 41.6266 66.7608 41.6415C66.6909 41.6565 66.5411 41.6666 66.4019 41.6666H64.7656C64.7608 41.6666 64.6211 41.6618 64.4461 41.6415C64.3565 41.6314 64.2622 41.5866 64.227 41.5866C64.212 41.5866 64.1971 41.6063 64.1822 41.6661C64.1523 41.801 64.0771 42.1301 64.0819 42.1599C64.0819 42.185 64.0867 42.2047 64.107 42.2047C64.1267 42.2047 64.1374 42.1999 64.1523 42.1647C64.1624 42.1397 64.1822 42.0799 64.227 42.0101C64.2968 41.9055 64.3661 41.8554 64.6856 41.8506C64.8851 41.8458 65.1496 41.8458 65.3139 41.8458V43.6261C65.3139 44.0004 65.3139 44.3594 65.2941 44.5386C65.2744 44.7082 65.2595 44.7679 65.1645 44.7828C65.1245 44.7876 65.0941 44.7876 65.0547 44.7876C65.0147 44.7876 64.9997 44.8074 64.9997 44.8223C64.9997 44.8474 65.0195 44.857 65.0744 44.857C65.2045 44.857 65.4989 44.842 65.5187 44.842C65.5384 44.842 65.8328 44.857 66.0872 44.857C66.1368 44.857 66.1517 44.842 66.1517 44.817C66.1517 44.802 66.132 44.7871 66.092 44.7871C66.052 44.7871 65.9571 44.7823 65.8973 44.7674C65.7731 44.7375 65.7629 44.6676 65.748 44.5476C65.7277 44.3631 65.7224 44.009 65.7224 43.625V41.8447C65.8675 41.8447 66.0216 41.8495 66.2115 41.8495C66.7155 41.8543 66.78 41.9045 66.8002 42.1039C66.805 42.1535 66.805 42.1589 66.805 42.1738C66.805 42.2138 66.8152 42.2341 66.8397 42.2341C66.8546 42.2341 66.8744 42.2191 66.8744 42.1738C66.8744 42.1338 66.8845 41.8047 66.8845 41.665C66.885 41.6463 66.8754 41.6218 66.8552 41.6218Z" fill="#012A7C"/>
<path d="M40.1751 1.71038C41.2044 2.5797 42.158 3.52262 43.0337 4.53114C43.2582 4.34394 43.4833 4.15994 43.7078 3.97915C42.6188 3.06716 41.5143 2.2453 40.4097 1.51305C41.0567 0.980787 41.7228 0.467194 42.4316 0C41.6849 0.408528 40.9303 0.869855 40.1751 1.36211C39.4199 0.869855 38.6652 0.408528 37.9186 0C38.6274 0.467194 39.2935 0.980787 39.9404 1.51305C38.8359 2.24584 37.7314 3.06716 36.6423 3.97915C36.8674 4.15994 37.0919 4.34394 37.3165 4.53114C38.1922 3.52315 39.1458 2.58023 40.1751 1.71038Z" fill="#012A7C"/>
<path d="M36.6304 5.35304C36.4075 5.09118 36.183 4.83038 35.9568 4.57172C35.0027 5.4101 34.0662 6.31569 33.1569 7.29328C33.5985 7.65701 34.0352 8.03194 34.4678 8.4154C35.1259 7.35355 35.8459 6.32956 36.6304 5.35304Z" fill="#012A7C"/>
<path d="M47.3769 1.32385C46.1743 2.09558 44.9412 2.98836 43.7076 3.97982C43.9375 4.17235 44.1652 4.37181 44.393 4.57234C45.3652 3.46249 46.3647 2.38091 47.3769 1.32385Z" fill="#012A7C"/>
<path d="M41.3697 8.29423C42.1206 7.28731 42.9067 6.30866 43.7195 5.35347C43.4961 5.07508 43.2678 4.80148 43.0337 4.53162C42.0726 5.33267 41.1158 6.19239 40.175 7.10225C40.5766 7.49104 40.9756 7.88784 41.3697 8.29423Z" fill="#012A7C"/>
<path d="M36.8198 10.6586C37.4107 11.2645 37.9931 11.8879 38.5606 12.5423C39.0673 11.6618 39.6054 10.8021 40.175 9.96475C39.7899 9.39836 39.3894 8.84317 38.9803 8.29437C38.2427 9.05383 37.5206 9.84369 36.8198 10.6586Z" fill="#012A7C"/>
<path d="M23.935 24.2055H28.8421H28.8869H34.5007H34.553H40.1375C39.826 21.8125 39.1737 19.501 38.2388 17.261C36.9028 19.3064 35.6735 21.5506 34.5791 24.0343C35.001 20.7799 35.9428 17.8205 37.2346 15.0813C36.7327 14.099 36.17 13.132 35.5621 12.1769C32.6752 15.8035 30.2757 19.8429 28.9307 23.9394C29.6507 19.2946 31.1754 14.1672 33.7663 9.58595C33.3658 9.05156 32.953 8.52037 32.5221 7.99451C28.8165 12.1779 25.6518 17.548 23.9238 24.1106C23.8342 23.2524 23.3345 16.5341 28.5499 8.11451C28.5499 8.11451 21.4732 13.5144 18.5692 24.2055H23.8961H23.935V24.2055Z" fill="#012A7C"/>
<path d="M44.7871 12.1769C45.3439 11.3023 45.9434 10.4388 46.5828 9.58601C46.3588 9.19028 46.122 8.80256 45.882 8.41589C45.0805 9.12628 44.2959 9.87347 43.5295 10.6585C43.9578 11.1556 44.3775 11.6617 44.7871 12.1769Z" fill="#012A7C"/>
<path d="M41.7894 12.5422C41.238 13.1779 40.7014 13.8435 40.175 14.5288C40.8422 15.3976 41.4881 16.3075 42.111 17.261C42.4172 16.5272 42.7483 15.7997 43.1153 15.0813C42.7062 14.2136 42.2641 13.3672 41.7894 12.5422Z" fill="#012A7C"/>
<path d="M51.0281 4.42657C49.722 5.31243 48.4415 6.26602 47.1935 7.29374C47.4068 7.52307 47.6175 7.75773 47.8276 7.99453C48.8196 6.78388 49.8878 5.59456 51.0281 4.42657Z" fill="#012A7C"/>
<path d="M51.4183 23.9394C50.0733 19.8429 47.6738 15.8035 44.787 12.1769C44.1795 13.1315 43.6163 14.0984 43.1144 15.0813C44.4056 17.8205 45.348 20.7794 45.7699 24.0343C44.6755 21.5506 43.4462 19.3064 42.1102 17.261C41.1753 19.5016 40.523 21.813 40.2115 24.2055H45.7965H45.8488H51.4631H51.5079H56.4151H56.4535H61.7803C58.8764 13.5144 51.7997 8.11451 51.7997 8.11451C57.0151 16.5347 56.5153 23.2524 56.4257 24.1106C54.6978 17.5485 51.533 12.1784 47.8274 7.99451C47.3965 8.52037 46.9837 9.05156 46.5832 9.58595C49.1736 14.1672 50.6983 19.2946 51.4183 23.9394Z" fill="#012A7C"/>
<path d="M45.8827 8.41595C46.3153 8.03249 46.7521 7.65756 47.1936 7.29383C46.2843 6.31624 45.3478 5.41012 44.3937 4.57227C44.167 4.83093 43.943 5.09173 43.7201 5.35359C44.5041 6.32958 45.2241 7.35356 45.8827 8.41595Z" fill="#012A7C"/>
<path d="M32.9729 1.32385C33.9852 2.38091 34.9846 3.46302 35.9569 4.57234C36.1846 4.37181 36.4129 4.17235 36.6422 3.97982C35.4086 2.98836 34.1756 2.09504 32.9729 1.32385Z" fill="#012A7C"/>
<path d="M41.3697 8.29437C40.9606 8.84317 40.5601 9.39836 40.175 9.96475C40.7446 10.8021 41.2828 11.6618 41.7894 12.5423C42.3569 11.8879 42.9393 11.2639 43.5302 10.6586C42.8294 9.84369 42.1073 9.05383 41.3697 8.29437Z" fill="#012A7C"/>
<path d="M40.175 7.10225C39.2342 6.19239 38.2774 5.33214 37.3164 4.53162C37.0822 4.80148 36.854 5.07508 36.6305 5.35347C37.4433 6.30866 38.2294 7.28731 38.9803 8.29423C39.3745 7.88784 39.7734 7.49104 40.175 7.10225Z" fill="#012A7C"/>
<path d="M37.2346 15.0813C37.6015 15.7997 37.9327 16.5272 38.2389 17.261C38.8618 16.3075 39.5071 15.3976 40.1748 14.5288C39.6485 13.8435 39.1119 13.1784 38.5605 12.5422C38.0858 13.3672 37.6437 14.2136 37.2346 15.0813Z" fill="#012A7C"/>
<path d="M34.4675 8.41589C34.2275 8.80256 33.9907 9.19082 33.7667 9.58601C34.4062 10.4388 35.0056 11.3017 35.5624 12.1769C35.9726 11.6617 36.3918 11.1556 36.8195 10.6585C36.0536 9.87294 35.2691 9.12628 34.4675 8.41589Z" fill="#012A7C"/>
<path d="M29.3218 4.42657C30.462 5.59456 31.5303 6.78388 32.5223 7.99453C32.7324 7.7572 32.9431 7.52307 33.1564 7.29374C31.9084 6.26602 30.6279 5.31243 29.3218 4.42657Z" fill="#012A7C"/>
</svg>
